<svg width="274" height="97" viewBox="0 0 274 97" fill="none" xmlns="http://www.w3.org/2000/svg">
<path fill-rule="evenodd" clip-rule="evenodd" d="M271.639 21.2374L271.804 21.1914C273.203 20.8223 272.408 18.9807 271.242 18.9674C270.793 18.9615 270.472 19.1097 270.263 19.3456C270.411 19.8083 270.543 20.2766 270.658 20.7494L270.935 19.7342L272.295 20.5929L271.639 21.2374ZM266.706 10.4547L267.068 11.3639L269.116 16.5155C269.569 17.4295 269.952 18.3755 270.263 19.3456C269.608 20.083 270.042 21.6776 271.049 22.1028C271.876 22.387 272.789 22.063 273.251 21.3215C273.822 20.4018 273.853 19.2465 273.335 18.2969C272.613 16.3305 271.854 14.3744 271.094 12.418C270.692 11.3815 270.29 10.3449 269.893 9.30665C269.742 8.90898 269.591 8.51081 269.441 8.11252C269.156 7.35932 268.871 6.60569 268.581 5.85436C268.88 5.05746 269.168 4.25537 269.445 3.4483C269.716 2.74931 269.555 1.96243 269.034 1.43335C268.513 0.904282 267.727 0.729793 267.02 0.986567C261.013 2.56579 255.113 4.54466 249.362 6.90977C248.67 7.21199 248.294 7.96662 248.473 8.69225C248.652 9.41789 249.334 9.90082 250.083 9.83298C254.938 8.7593 259.734 7.43194 264.452 5.85673C264.513 5.70928 264.573 5.56171 264.633 5.41402C264.668 5.52943 264.707 5.64364 264.752 5.75628C264.652 5.78988 264.552 5.82336 264.452 5.85673C263.906 7.18182 263.335 8.49682 262.73 9.79569C254.225 30.408 237.19 46.4293 216.057 53.6918C206.587 56.5677 196.516 56.6379 187.078 53.8939C181.694 52.2226 176.751 49.582 171.807 46.9403C166.979 44.3612 162.15 41.7812 156.907 40.1014C138.318 34.3311 118.032 36.8628 101.249 47.0477C92.2627 53.1619 84.398 60.7803 78.0096 69.5591C71.7647 78.6056 63.1752 85.8078 53.1722 90.3849C35.4041 96.7787 15.6579 91.5801 3.60573 77.3352C3.04851 76.6507 2.0421 76.5349 1.3279 77.0731C0.613701 77.6113 0.447612 78.6106 0.951985 79.3349C2.3561 81.2306 3.93653 82.9893 5.67269 84.5879C19.9588 97.2808 40.5463 100.229 58.0952 92.0962C68.06 86.2108 76.6171 78.2111 83.1493 68.6744C86.7418 64.0024 90.7636 59.6722 95.1615 55.7413C98.9495 52.5206 103.121 49.779 107.578 47.5802C116.489 43.2061 126.254 40.8912 136.139 40.8098C146.21 40.7829 156.106 43.1881 164.981 47.8194C166.711 48.7002 168.42 49.6217 170.129 50.5433C173.633 52.4319 177.137 54.3212 180.817 55.8625C185.589 57.8715 190.652 59.1313 195.828 59.5976C205.996 60.3763 216.227 58.5444 225.546 54.2763C243.938 44.7423 258.446 29.2231 266.706 10.4547ZM268.137 4.57029C268.08 4.37735 268.009 4.19043 267.924 4.01087L268.384 4.47976C268.302 4.51002 268.219 4.54019 268.137 4.57029ZM266.154 2.2083C266.081 2.17193 266.006 2.13774 265.929 2.10591C265.941 2.07547 265.952 2.04504 265.964 2.01458L266.154 2.2083Z" fill="white"/>
</svg>
