<svg width="211" height="141" viewBox="0 0 211 141" fill="none" xmlns="http://www.w3.org/2000/svg">
<path fillRule="evenodd" clipRule="evenodd" d="M1.71509 85.0997C6.00178 74.2289 15.6909 66.4291 27.1917 64.5907C33.2714 63.178 39.5716 63.024 45.7069 64.1383C52.0839 64.7315 57.4299 69.2041 59.1559 75.3901C59.7598 78.0089 59.1307 80.7636 57.4495 82.8617C55.9009 84.511 53.7158 85.405 51.4622 85.3114C46.4971 85.322 42.2531 81.7451 41.4078 76.8376C40.6118 71.0669 42.9314 65.2995 47.4997 61.6912C52.6309 57.8365 58.7278 55.4904 65.1064 54.9159C78.9828 53.7463 92.9491 55.1877 106.286 59.166C113.13 60.8032 119.93 62.6094 126.832 63.9994C133.027 65.6096 139.493 65.8909 145.809 64.825C151.282 63.7508 155.936 60.1546 158.372 55.1187C160.847 50.5065 160.248 44.8492 156.865 40.8738C154.436 38.549 151.353 37.0287 148.032 36.5176C145.094 35.7984 142.004 36.0138 139.19 37.1339C136.636 38.6171 134.782 41.0672 134.045 43.9328C133.307 46.7983 133.749 49.8385 135.27 52.3688C138.767 57.7076 143.924 61.7362 149.941 63.8303C155.446 66.2352 161.287 67.78 167.262 68.4111C179.168 69.7451 191.209 67.5049 201.861 61.9738C204.409 60.6085 206.858 59.0643 209.189 57.3528C209.658 57.0755 209.923 56.549 209.866 56.0065C209.809 55.4639 209.442 55.0053 208.926 54.8337L190.904 50.0422C190.098 49.8321 189.27 50.3016 189.033 51.1032C188.795 51.9049 189.234 52.7496 190.024 53.0122L208.147 57.4634L207.602 55.1501C197.856 62.1489 186.175 65.9082 174.203 65.8986C168.229 65.9638 162.282 65.104 156.574 63.3495C150.621 61.7654 145.112 58.835 140.467 54.7824C138.145 52.7319 136.733 49.8362 136.545 46.7347C136.315 43.891 137.779 41.1754 140.278 39.8082C143.111 38.7654 146.221 38.7797 149.04 39.8485C151.998 40.5103 154.549 42.3718 156.087 44.991C157.747 49.5223 156.528 54.6172 152.996 57.9083C148.39 61.8082 142.332 63.52 136.384 62.6018C129.667 61.9114 123.019 60.6629 116.51 58.8692C109.6 57.2165 102.719 55.4179 95.7552 54.0029C82.4527 50.5012 68.4574 50.5816 55.1798 54.2361C49.1739 56.0024 44.0144 59.9106 40.6735 65.224C37.5344 70.3401 37.3462 76.7409 40.1797 82.0205C42.9661 86.2994 47.9518 88.5938 53.0085 87.9243C58.2549 87.2061 62.1151 82.6182 61.9393 77.3098C61.6594 71.1414 57.8119 65.7145 52.0992 63.4304C46.0146 61.0298 39.4172 60.2265 32.9301 61.0963C21.124 61.6111 10.1862 67.5058 3.22746 77.1038C1.81126 79.4362 0.822754 82.0035 0.308863 84.684C0.20885 85.0684 0.430392 85.4624 0.809673 85.5748C1.18895 85.6871 1.58938 85.4773 1.71485 85.1005L1.71509 85.0997Z" fill="white"/>
<path fillRule="evenodd" clipRule="evenodd" d="M207.412 56.3633C204.302 60.7286 201.761 65.4912 199.855 70.5304C199.192 72.1986 201.883 72.9764 202.513 71.2809C204.377 66.4906 206.637 61.8718 209.268 57.4746C209.538 56.9525 210.665 55.075 208.165 55.075C203.469 53.6433 204.963 60.075 207.412 56.3633Z" fill="white"/>
</svg>
