<svg width="127" height="117" viewBox="0 0 127 117" fill="none" xmlns="http://www.w3.org/2000/svg">
<path fillRule="evenodd" clipRule="evenodd" d="M16.8888 19.2187C11.047 18.6938 5.36588 16.5252 0.55429 12.842L0.556463 12.8397C-0.266388 12.1826 0.849948 11.0925 1.66064 11.6963C2.53975 12.3484 3.4586 12.9446 4.41165 13.4814C8.41684 15.6658 12.7965 16.9038 17.224 17.1727C17.06 17.8509 16.9488 18.5347 16.8888 19.2187ZM35.557 35.9447C30.4055 36.1634 25.3271 34.342 21.4424 30.8452C18.1646 27.8469 16.5107 23.5281 16.8888 19.2187C17.669 19.2888 18.452 19.3296 19.2362 19.3407C19.1944 19.6312 19.161 19.9237 19.1362 20.218C19.2096 24.875 21.8591 29.1421 26.0168 31.2992C29.1235 32.8965 32.5631 33.6361 35.9831 33.4797C35.7767 34.289 35.6343 35.1132 35.557 35.9447ZM53.9803 52.3425C53.2239 52.3892 52.4627 52.4002 51.6991 52.3749C45.5347 52.3708 39.8105 49.0329 36.7375 43.6505C35.7019 41.1682 35.3173 38.5219 35.557 35.9447C35.9784 35.9268 36.4003 35.8953 36.8221 35.8499C37.2172 35.8238 37.6112 35.7898 38.0037 35.748C37.6201 38.7299 38.3128 41.8297 40.0724 44.446C43.6292 48.4333 48.9066 50.4285 54.1663 49.7745C54.1896 49.772 54.2129 49.7696 54.2361 49.7671C54.0808 50.6197 53.9958 51.481 53.9803 52.3425ZM69.518 67.9049C68.0891 67.8374 66.6537 67.6471 65.2267 67.3296C61.2039 66.2053 57.7757 63.5272 55.7044 59.8905C54.516 57.5258 53.9338 54.933 53.9803 52.3425C54.8458 52.289 55.7051 52.1889 56.5544 52.0432C56.5195 52.364 56.4924 52.687 56.4734 53.0119C56.4764 56.4062 57.9374 59.6553 60.4851 61.9337C63.1335 64.1462 66.433 65.4142 69.8537 65.5414C69.6898 66.3196 69.5775 67.1092 69.518 67.9049ZM85.1435 83.6864C82.167 83.5489 79.2305 82.7683 76.5424 81.3792C72.8789 79.41 70.3259 75.8524 69.6433 71.7655C69.4628 70.4771 69.4224 69.183 69.518 67.9049C70.3352 67.9435 71.1502 67.942 71.9604 67.9012C71.5914 70.9448 72.4539 74.0404 74.3783 76.4895C77.5253 79.301 81.4297 80.8946 85.4263 81.1883C85.3788 81.3756 85.3344 81.5637 85.2928 81.7527C85.1671 82.3933 85.1181 83.0422 85.1435 83.6864ZM118.031 111.948L117.9 111.853C109.002 105.439 100.133 98.9848 91.2926 92.49C89.4281 91.2666 87.7968 89.7178 86.4783 87.919C85.657 86.6382 85.202 85.1747 85.1435 83.6864C85.971 83.7247 86.8017 83.7132 87.6309 83.6512C87.6604 84.0712 87.7288 84.4911 87.8368 84.9054C88.3056 86.7031 89.4814 88.2437 91.0952 89.1747C93.5418 91.1814 96.1521 93.0184 98.7538 94.8493C99.919 95.6694 101.083 96.4882 102.229 97.3205C109.26 102.44 116.284 107.569 123.299 112.708C123.303 112.728 123.306 112.748 123.31 112.768C123.343 112.775 123.376 112.782 123.41 112.789C123.373 112.762 123.336 112.735 123.299 112.708C123.15 111.855 122.998 111.003 122.846 110.151C122.546 108.47 122.246 106.789 121.967 105.104C121.782 104.399 122.183 103.681 122.877 103.474C123.581 103.285 124.314 103.699 124.522 104.403C124.801 106.091 125.059 107.782 125.316 109.474C125.538 110.929 125.76 112.383 125.995 113.836C126.038 113.942 126.062 114.058 126.066 114.178C126.067 114.207 126.066 114.236 126.065 114.264C126.114 114.563 126.163 114.862 126.214 115.161C126.366 116.071 125.41 117.284 124.431 116.576L122.176 114.945C120.707 114.789 119.244 114.571 117.79 114.292L113.987 113.77C112.773 113.673 111.566 113.488 110.375 113.218C109.799 113.054 109.419 112.498 109.479 111.908C109.538 111.317 110.019 110.867 110.614 110.845C111.871 110.931 113.123 111.107 114.359 111.372L117.964 111.941C117.987 111.943 118.009 111.945 118.031 111.948ZM123.706 115.085C123.747 115.328 123.787 115.571 123.826 115.815L124.664 115.149C124.345 115.131 124.025 115.109 123.706 115.085ZM124.93 114.939L124.736 115.092C124.48 114.996 124.228 114.893 123.977 114.791C123.862 114.744 123.748 114.697 123.634 114.651C123.557 114.198 123.48 113.745 123.401 113.292C123.616 113.282 123.83 113.268 124.044 113.253C124.408 113.52 124.772 113.786 125.136 114.053L124.93 114.939ZM87.9051 81.2035C87.0788 81.2542 86.2506 81.2489 85.4263 81.1883C85.9165 79.2541 86.7227 77.4164 87.8136 75.7492C90.359 71.5094 93.7852 67.8717 97.8646 65.0778C99.7026 63.6899 101.74 62.5851 103.911 61.7997C105.869 61.0621 108.096 61.7701 109.295 63.5117C110.164 65.1873 110.305 67.1384 109.685 68.9018C109.02 70.8546 107.949 72.6399 106.542 74.1413C102.095 79.2681 95.9186 82.5857 89.1562 83.4798C88.649 83.5561 88.1402 83.6132 87.6309 83.6512C87.5728 82.8224 87.6662 81.9928 87.9051 81.2035ZM87.9051 81.2035C90.4744 81.0457 93.0253 80.3463 95.3822 79.0836C98.9333 77.531 102.079 75.1947 104.585 72.248C105.757 71.0015 106.625 69.501 107.125 67.8602C107.685 66.6676 107.411 65.24 106.445 64.321C104.605 64.0733 102.758 64.6223 101.369 65.8295C99.5603 66.8563 97.8638 68.0667 96.306 69.4417C93.0525 72.2594 90.4308 75.7314 88.6079 79.6365C88.3053 80.1306 88.0704 80.6574 87.9051 81.2035ZM72.5028 65.3195C71.7575 65.4279 71.0045 65.5054 70.2455 65.5509C70.1147 65.5494 69.9841 65.5462 69.8537 65.5414C70.2467 63.6755 70.9369 61.875 71.91 60.2113C74.6549 55.9104 78.3396 52.2938 82.6921 49.6286C83.8568 48.8394 85.0357 48.0727 86.2288 47.3284C87.0238 46.7771 87.9072 46.3639 88.8425 46.1057C90.8993 45.6759 92.9938 46.7576 93.8515 48.6926C94.8491 53.1088 92.8953 57.6268 89.0126 59.8819C84.5666 64.7575 78.4174 67.5762 71.9604 67.9012C71.9942 67.6223 72.0384 67.3438 72.093 67.0663C72.202 66.4756 72.3389 65.8928 72.5028 65.3195ZM72.5028 65.3195C79.46 64.307 85.7418 60.5925 89.9519 54.9286C91.243 53.7684 91.8591 52.0317 91.5934 50.3016C91.4262 49.6118 90.9523 49.0327 90.308 48.7308C89.6111 48.5983 88.8941 48.754 88.3216 49.1621C84.2702 51.2741 80.5636 53.9807 77.3235 57.1933C75.0371 59.4444 73.3818 62.2444 72.5028 65.3195ZM57.0593 49.2848C56.1387 49.503 55.1963 49.665 54.2361 49.7671C54.3248 49.2804 54.4364 48.7966 54.5711 48.3171C57.7776 39.5151 65.3914 33.1013 74.6293 31.4204C75.0913 31.3028 75.5844 31.4351 75.9306 31.7695C76.2768 32.1038 76.4262 32.592 76.3249 33.0577C75.0692 39.028 71.6059 44.2776 66.6231 47.7634C63.6351 49.9648 60.1851 51.4203 56.5544 52.0432C56.6567 51.1036 56.8264 50.1823 57.0593 49.2848ZM73.0539 34.6749C70.6077 41.9961 64.5559 47.5072 57.0593 49.2848C58.6652 43.0968 63.274 38.0424 69.4856 35.9569C70.6539 35.4735 71.8447 35.0457 73.0539 34.6749ZM73.0539 34.6749C73.3012 33.9345 73.5117 33.1756 73.6831 32.4003L75.3786 34.0376C74.597 34.2268 73.8217 34.4394 73.0539 34.6749ZM38.6158 33.18C37.7435 33.3398 36.8639 33.4395 35.9831 33.4797C36.4712 31.5661 37.3178 29.7365 38.511 28.0947C42.7872 22.7348 48.5071 18.7111 55.0121 16.4869C55.6349 16.1391 56.4279 16.3475 56.8103 16.9595C57.3068 17.9551 57.6097 19.0338 57.7026 20.1376C57.5017 24.5722 55.1083 28.5879 51.3159 30.8533C47.3568 33.56 42.784 35.2382 38.0037 35.748C38.1158 34.8769 38.3197 34.0159 38.6158 33.18ZM54.7946 19.2937C55.3102 22.3718 54.0666 25.4982 51.5108 27.3445C48.2903 30.1459 44.3759 32.0385 40.1629 32.831C39.6506 32.9687 39.1345 33.085 38.6158 33.18C38.9273 32.3 39.341 31.4479 39.8569 30.641C43.5225 25.3761 48.7474 21.4153 54.7946 19.2937ZM54.7946 19.2937C54.7379 18.9553 54.6599 18.6174 54.5601 18.2818L56.047 18.8843C55.6258 19.0121 55.2083 19.1486 54.7946 19.2937ZM19.6996 17.222C18.8742 17.2393 18.0483 17.2228 17.224 17.1727C17.2277 17.1576 17.2313 17.1425 17.2351 17.1274C18.6772 12.6673 21.5573 8.82682 25.4291 6.20118C27.3904 4.72358 29.4965 3.4468 31.7165 2.38973C33.8838 1.13199 36.3203 0.397985 38.8342 0.245458C41.2612 0.163464 43.3783 1.93776 43.7267 4.34561C43.7784 6.65754 42.8796 8.87689 41.2401 10.4858C37.8481 14.0716 33.5373 16.6615 28.7637 17.9817C25.6444 18.9401 22.4305 19.3861 19.2362 19.3407C19.3399 18.6203 19.4952 17.9124 19.6996 17.222ZM19.6996 17.222C23.139 17.1502 26.5706 16.4928 29.8421 15.2392C33.8498 13.8681 37.3949 11.4293 40.0987 8.18349C41.387 6.94768 41.705 5.00487 40.8824 3.39648C39.0571 2.29772 36.7791 2.32467 35.0102 3.46596C31.0244 4.98885 27.3769 7.26353 24.2643 10.1674C22.0807 12.0416 20.5071 14.4952 19.6996 17.222Z" fill="white"/>
</svg>
